<?xml version="1.0" standalone="no"?><!DOCTYPE svg PUBLIC "-//W3C//DTD SVG 1.1//EN" "http://www.w3.org/Graphics/SVG/1.1/DTD/svg11.dtd"><svg t="1616573060236" class="icon" viewBox="0 0 1024 1024" version="1.1" xmlns="http://www.w3.org/2000/svg" p-id="2052" xmlns:xlink="http://www.w3.org/1999/xlink" width="200" height="200"><defs><style type="text/css"></style></defs><path d="M512.704 170.56c1.408 1.408 3.456 3.84 5.632 7.488l394.496 665.856a40.064 40.064 0 0 1 3.904 8.512 35.52 35.52 0 0 1-9.472 1.024H118.144a38.464 38.464 0 0 1-9.472-1.024 33.6 33.6 0 0 1 3.84-8.512L507.008 178.048a37.952 37.952 0 0 1 5.696-7.488z m0-42.56c-15.36 0-30.656 9.856-42.304 29.44L75.904 823.296c-23.232 39.232-4.224 71.36 42.24 71.36h789.056c46.528 0 65.472-32.128 42.24-71.36L554.944 157.44C543.296 137.856 528 128 512.704 128" p-id="2053"></path><path d="M512.704 656.064a44.608 44.608 0 0 0 45.12-43.968V343.04a44.608 44.608 0 0 0-45.12-43.968 44.608 44.608 0 0 0-45.12 43.968v269.12c0 24.192 20.16 43.904 45.12 43.904zM512.704 741.184z m-56.384 0c0 30.336 25.28 54.912 56.384 54.912s56.32-24.64 56.32-54.912-25.216-54.912-56.32-54.912-56.384 24.576-56.384 54.912" p-id="2054"></path></svg>