<?xml version="1.0" standalone="no"?><!DOCTYPE svg PUBLIC "-//W3C//DTD SVG 1.1//EN" "http://www.w3.org/Graphics/SVG/1.1/DTD/svg11.dtd"><svg t="1638776121087" class="icon" viewBox="0 0 1024 1024" version="1.1" xmlns="http://www.w3.org/2000/svg" p-id="2365" xmlns:xlink="http://www.w3.org/1999/xlink" width="32" height="32"><defs><style type="text/css"></style></defs><path d="M971.40352 128H52.61952A53.76 53.76 0 0 0 0.01152 182.848v658.304A53.76 53.76 0 0 0 52.61952 896h918.784a53.824 53.824 0 0 0 52.608-54.848V182.848A53.76 53.76 0 0 0 971.40352 128M896.01152 704H608.01152a34.304 34.304 0 0 1-32-31.424 35.392 35.392 0 0 1 32-32.576H896.01152a32 32 0 0 1 0 64m0-160H608.01152a34.432 34.432 0 0 1-32-31.616 35.264 35.264 0 0 1 32-32.384H896.01152a35.392 35.392 0 0 1 32 32.384 34.56 34.56 0 0 1-32 31.616M896.01152 384H608.01152a34.368 34.368 0 0 1-32-31.488A35.328 35.328 0 0 1 608.01152 320H896.01152a35.456 35.456 0 0 1 32 32.448A34.496 34.496 0 0 1 896.01152 384m0 0z m-432.96 352h-318.08a45.952 45.952 0 0 1-48.96-28.8 96 96 0 0 1 65.216-94.336c61.056-24.064 65.408-27.008 65.408-27.008a88.128 88.128 0 0 1 20.8-25.6c6.4-1.536 1.088-11.2 0-13.888a90.56 90.56 0 0 1-33.984-60.544c0-11.584 1.472-12.352-4.032-12.352s-18.24-8.384-18.24-36.544 0-29.312 4.736-30.08a50.496 50.496 0 0 0 19.2-42.176A79.488 79.488 0 0 1 303.75552 288c16.768 0 21.184 4.544 36.992 3.328 2.048 4.864-3.392-2.24 0 0A78.144 78.144 0 0 1 392.52352 364.8a100.032 100.032 0 0 0 19.2 54.848c4.736 0.768 4.736 1.92 4.736 30.08s-12.8 36.288-18.24 36.288-8.704-2.752-8.704 8.832a64 64 0 0 1-29.248 51.2c-1.088 2.688-6.4 12.352 0 13.888a87.872 87.872 0 0 1 20.8 25.6s4.352 2.688 65.28 27.008A96 96 0 0 1 512.01152 707.968c1.024 19.264-27.776 28.032-48.96 28.032z" p-id="2366"></path></svg>