<svg t="1623146076462" class="icon" viewBox="0 0 1024 1024" version="1.1" xmlns="http://www.w3.org/2000/svg" p-id="4787" width="200" height="200"><path d="M156.2 336.2l346.1 173c2.5 1.2 5.1 1.8 7.8 1.8s5.3-0.6 7.8-1.8l346.1-173c12.8-6.4 12.8-24.7 0-31.2L517.9 132c-2.5-1.2-5.1-1.8-7.8-1.8s-5.3 0.6-7.8 1.8L156.2 305c-12.8 6.4-12.8 24.7 0 31.2z m353.9-129.3l227.4 113.7-227.4 113.7-227.4-113.7 227.4-113.7z" fill="#8a8a8a" p-id="4788"></path><path d="M864 495.3l-112.4-56.2-78.8 39.4 64.8 32.4-227.5 113.7-227.4-113.7 64.8-32.4-78.8-39.4-112.4 56.2c-12.8 6.4-12.8 24.7 0 31.2l346.1 173c2.5 1.2 5.1 1.8 7.8 1.8s5.3-0.6 7.8-1.8l346.1-173c12.7-6.5 12.7-24.8-0.1-31.2z" fill="#8a8a8a" p-id="4789"></path><path d="M864 687.9l-118.2-59.1-78.8 39.4 70.5 35.3-227.4 113.7-227.4-113.7 70.5-35.3-78.8-39.4-118.2 59.1c-12.8 6.4-12.8 24.7 0 31.2l346.1 173c2.5 1.2 5.1 1.8 7.8 1.8s5.3-0.6 7.8-1.8L864 719c12.8-6.4 12.8-24.7 0-31.1z" fill="#8a8a8a" p-id="4790"></path></svg>