<?xml version="1.0" standalone="no"?><!DOCTYPE svg PUBLIC "-//W3C//DTD SVG 1.1//EN" "http://www.w3.org/Graphics/SVG/1.1/DTD/svg11.dtd"><svg t="1639124702101" class="icon" viewBox="0 0 1024 1024" version="1.1" xmlns="http://www.w3.org/2000/svg" p-id="2973" xmlns:xlink="http://www.w3.org/1999/xlink" width="32" height="32"><defs><style type="text/css"></style></defs><path d="M927.872 478.048H168.864l308.736-308.864c11.68-11.68 11.424-30.88-0.544-42.88s-31.168-12.224-42.88-0.544L75.232 484.896a29.952 29.952 0 0 0-5.28 5.728 29.76 29.76 0 0 0-5.92 18.336 29.44 29.44 0 0 0 8.608 21.44L434.208 892.16c11.68 11.68 30.88 11.456 42.88-0.544s12.256-31.168 0.544-42.88l-309.152-309.28h759.424c16.512 0 29.92-13.728 29.92-30.688s-13.408-30.688-29.92-30.688z" p-id="2974"></path></svg>