<?xml version="1.0" standalone="no"?><!DOCTYPE svg PUBLIC "-//W3C//DTD SVG 1.1//EN" "http://www.w3.org/Graphics/SVG/1.1/DTD/svg11.dtd"><svg t="1615974264411" class="icon" viewBox="0 0 1024 1024" version="1.1" xmlns="http://www.w3.org/2000/svg" p-id="2146" xmlns:xlink="http://www.w3.org/1999/xlink" width="200" height="200"><defs><style type="text/css"></style></defs><path d="M921.6 76.8L518.4 0h-12.8L102.4 76.8c-19.2 0-32 19.2-32 38.4v473.6c0 76.8 25.6 147.2 70.4 204.8 38.4 51.2 83.2 96 147.2 134.4 102.4 64 204.8 96 211.2 96h19.2c6.4 0 108.8-32 211.2-96 64-38.4 108.8-83.2 147.2-134.4 44.8-64 70.4-134.4 70.4-204.8V115.2c6.4-19.2-6.4-32-25.6-38.4z m-44.8 512c0 108.8-64 198.4-179.2 275.2-51.2 32-108.8 57.6-179.2 83.2H512c-243.2-83.2-364.8-204.8-364.8-358.4V153.6c0-6.4 0-6.4 6.4-6.4l358.4-64h6.4l352 64c6.4 0 6.4 6.4 6.4 6.4v435.2z" p-id="2147"></path><path d="M704 371.2L441.6 576 320 486.4c-19.2-12.8-38.4-12.8-51.2 6.4-12.8 12.8-12.8 38.4 6.4 51.2l140.8 108.8c6.4 6.4 12.8 6.4 19.2 6.4 12.8 0 19.2 0 25.6-6.4l288-224c19.2-12.8 19.2-38.4 6.4-51.2-6.4-19.2-32-19.2-51.2-6.4z" p-id="2148"></path></svg>