<?xml version="1.0" encoding="UTF-8"?>
<svg width="16px" height="16px" viewBox="0 0 16 16" version="1.1" xmlns="http://www.w3.org/2000/svg" xmlns:xlink="http://www.w3.org/1999/xlink">
    <!-- Generator: Sketch 59.1 (86144) - https://sketch.com -->
    <title>icon_sun</title>
    <desc>Created with Sketch.</desc>
    
                        <path d="M7.7,13.3 C8.16666667,13.3 8.4,13.5333333 8.4,14 L8.4,14.7 C8.4,15.1277778 8.20393519,15.3594907 7.81180556,15.3951389 L7.7,15.4 C7.23333333,15.4 7,15.1666667 7,14.7 L7,14 C7,13.5722222 7.19606481,13.3405093 7.58819444,13.3048611 L7.7,13.3 Z M3.65806632,11.5838167 L3.74056211,11.6594379 C4.07054528,11.9894211 4.07054528,12.3194042 3.74056211,12.6493874 L3.24558738,13.1443621 C2.9431028,13.4468467 2.64061824,13.4720537 2.33813368,13.2199833 L2.25563789,13.1443621 C1.92565472,12.8143789 1.92565472,12.4843958 2.25563789,12.1544126 L2.75061262,11.6594379 C3.0530972,11.3569533 3.35558176,11.3317463 3.65806632,11.5838167 Z M12.6493874,11.6594379 L13.1443621,12.1544126 C13.4468467,12.4568972 13.4720537,12.7593818 13.2199833,13.0618663 L13.1443621,13.1443621 C12.8143789,13.4743453 12.4843958,13.4743453 12.1544126,13.1443621 L11.6594379,12.6493874 C11.3569533,12.3469028 11.3317463,12.0444182 11.5838167,11.7419337 L11.6594379,11.6594379 C11.9894211,11.3294547 12.3194042,11.3294547 12.6493874,11.6594379 Z M7.7,2.8 C10.4061952,2.8 12.5999999,4.99380475 12.5999999,7.7 C12.5999999,10.4061952 10.4061952,12.6 7.7,12.6 C5.94939859,12.6 4.33177617,11.6660653 3.45647546,10.15 C2.58117475,8.63393473 2.58117475,6.76606527 3.45647546,5.24999998 C4.33177617,3.73393469 5.94939859,2.8 7.7,2.8 Z M7.7,3.92 C5.61236365,3.92 3.92,5.61236365 3.92,7.7 C3.92,9.78763635 5.61236365,11.48 7.7,11.48 C9.78763635,11.48 11.48,9.78763635 11.48,7.7 C11.48,5.61236365 9.78763635,3.92 7.7,3.92 Z M1.4,7 C1.82777778,7 2.05949074,7.19606481 2.09513889,7.58819444 L2.1,7.7 C2.1,8.16666667 1.86666667,8.4 1.4,8.4 L0.7,8.4 C0.272222222,8.4 0.0405092593,8.20393519 0.00486111111,7.81180556 L2.13162821e-14,7.7 C2.13162821e-14,7.23333333 0.233333333,7 0.7,7 L1.4,7 Z M14.7,7 C15.1277778,7 15.3594907,7.19606481 15.3951389,7.58819444 L15.4,7.7 C15.4,8.16666667 15.1666667,8.4 14.7,8.4 L14,8.4 C13.5722222,8.4 13.3405093,8.20393519 13.3048611,7.81180556 L13.3,7.7 C13.3,7.23333333 13.5333333,7 14,7 L14.7,7 Z M13.0625663,2.17931675 L13.1450621,2.25493789 C13.4750453,2.58492106 13.4750453,2.91490423 13.1450621,3.24488738 L12.6500874,3.73986211 C12.3476028,4.04234668 12.0451182,4.06755373 11.7426337,3.81548325 L11.6601379,3.73986211 C11.3301547,3.40987894 11.3301547,3.07989577 11.6601379,2.74991262 L12.1551126,2.25493789 C12.4575972,1.95245332 12.7600818,1.92724627 13.0625663,2.17931675 Z M3.24488738,2.25493789 L3.73986211,2.74991262 C4.04234668,3.0523972 4.06755373,3.35488176 3.81548325,3.65736632 L3.73986211,3.73986211 C3.40987894,4.06984528 3.07989577,4.06984528 2.74991262,3.73986211 L2.25493789,3.24488738 C1.95245332,2.9424028 1.92724627,2.63991824 2.17931675,2.33743368 L2.25493789,2.25493789 C2.58492106,1.92495472 2.91490423,1.92495472 3.24488738,2.25493789 Z M7.7,3.62376795e-13 C8.16666667,3.62376795e-13 8.4,0.233333333 8.4,0.7 L8.4,1.4 C8.4,1.82777778 8.20393519,2.05949074 7.81180556,2.09513889 L7.7,2.1 C7.23333333,2.1 7,1.86666667 7,1.4 L7,0.7 C7,0.272222222 7.19606481,0.0405092593 7.58819444,0.00486111111 L7.7,3.62376795e-13 Z" id="icon_sun"></path>
                    
</svg>